<?xml version="1.0" standalone="no"?><!DOCTYPE svg PUBLIC "-//W3C//DTD SVG 1.1//EN" "http://www.w3.org/Graphics/SVG/1.1/DTD/svg11.dtd"><svg t="1701614582938" class="icon" viewBox="0 0 1080 1024" version="1.1" xmlns="http://www.w3.org/2000/svg" p-id="1760" xmlns:xlink="http://www.w3.org/1999/xlink" width="210.9375" height="200"><path d="M540.524658 496.810667A310.385778 310.385778 0 0 1 839.191324 406.755556a312.888889 312.888889 0 1 0-597.333333 0A314.368 314.368 0 0 1 312.969102 398.222222a311.722667 311.722667 0 0 1 227.555556 98.588445z" fill="#F44336" p-id="1761"></path><path d="M839.191324 406.613333a313.258667 313.258667 0 0 1-227.555555 210.744889 313.230222 313.230222 0 0 1 14.222222 93.610667 311.495111 311.495111 0 0 1-85.333333 214.300444 312.689778 312.689778 0 1 0 298.666666-518.656z" fill="#4CAF50" p-id="1762"></path><path d="M540.524658 496.810667a312.888889 312.888889 0 0 1 71.111111 120.433777 313.258667 313.258667 0 0 0 227.555555-210.488888A310.044444 310.044444 0 0 0 540.524658 496.810667z" fill="#FFEB3B" p-id="1763"></path><path d="M469.413547 617.386667a313.258667 313.258667 0 0 1-227.555556-210.744889A312.718222 312.718222 0 1 0 540.524658 925.411556a312.405333 312.405333 0 0 1-71.111111-308.024889z" fill="#03A9F4" p-id="1764"></path><path d="M469.49888 617.244444a312.547556 312.547556 0 0 1 71.111111-120.576 311.722667 311.722667 0 0 0-227.555555-98.446222 314.339556 314.339556 0 0 0-71.111112 8.391111 313.258667 313.258667 0 0 0 227.555556 210.631111z" fill="#EA80FC" p-id="1765"></path><path d="M611.635769 617.386667A314.368 314.368 0 0 1 540.524658 625.777778a314.339556 314.339556 0 0 1-71.111111-8.391111A312.405333 312.405333 0 0 0 540.524658 925.411556a311.495111 311.495111 0 0 0 85.333333-214.158223 312.888889 312.888889 0 0 0-14.222222-93.866666z" fill="#80DEEA" p-id="1766"></path><path d="M469.49888 617.386667a314.339556 314.339556 0 0 0 71.111111 8.533333 314.339556 314.339556 0 0 0 71.111111-8.533333 312.547556 312.547556 0 0 0-71.111111-120.576 312.547556 312.547556 0 0 0-71.111111 120.576z" fill="#ECF0F1" p-id="1767"></path></svg>